<svg width="140" height="140" fill="none" xmlns="http://www.w3.org/2000/svg"><circle cx="70" cy="70" r="68" fill="#fff" stroke="#A8CE38" stroke-width="4"/><path d="M25.73 107.526c-.145 0-.241-.097-.241-.241v-26.78c0-2.912.985-5.318 2.954-7.195 1.969-1.876 4.37-2.815 7.156-2.815.144 0 .24.096.24.24v1.613c0 .072-.024.12-.072.168a.218.218 0 01-.168.073c-2.161 0-4.01.746-5.523 2.237-1.513 1.492-2.258 3.393-2.258 5.655v14.966h7.83c.143 0 .24.096.24.24V97.3c0 .144-.097.24-.24.24h-7.83v9.697c0 .144-.096.241-.24.241H25.73v.048z" fill="#501B73"/><path d="M35.599 70.76v1.612c-2.233 0-4.13.77-5.691 2.31s-2.33 3.489-2.33 5.847v15.207h8.07v1.612h-8.07v9.937H25.73v-26.78c0-2.84.96-5.197 2.882-7.026 1.921-1.805 4.25-2.72 6.988-2.72zm0-.481c-2.834 0-5.307.962-7.3 2.887-2.018 1.925-3.026 4.403-3.026 7.363v26.756c0 .265.216.481.48.481h1.85c.263 0 .48-.216.48-.481v-9.456h7.588c.264 0 .48-.217.48-.481v-1.612a.482.482 0 00-.48-.482h-7.613V80.53c0-2.238.72-4.042 2.186-5.486 1.489-1.468 3.218-2.166 5.355-2.166.264 0 .48-.216.48-.48v-1.613c0-.313-.216-.505-.48-.505z" fill="#501B73"/><path d="M25.73 107.766a.482.482 0 01-.481-.481v-26.78c0-2.984 1.032-5.462 3.026-7.363 2.017-1.9 4.466-2.887 7.3-2.887.264 0 .48.216.48.48v1.613a.482.482 0 01-.48.481c-2.09 0-3.89.722-5.355 2.166-1.465 1.443-2.185 3.296-2.185 5.486v14.725h7.588c.264 0 .48.217.48.481V97.3a.482.482 0 01-.48.48H28.06v9.457a.482.482 0 01-.48.481h-1.85v.048zm1.368-.962v-9.456c0-.265.216-.481.48-.481h7.589v-.65h-7.589a.482.482 0 01-.48-.481V80.529c0-2.478.84-4.548 2.473-6.184 1.537-1.516 3.387-2.334 5.548-2.43v-.65c-2.378.097-4.467.987-6.172 2.599-1.825 1.732-2.738 3.97-2.738 6.665v26.275h.889z" fill="#501B73"/><path d="M35.6 70.52c.143 0 .24.096.24.24v1.612c0 .144-.097.24-.24.24-2.162 0-4.011.747-5.524 2.238-1.513 1.492-2.258 3.393-2.258 5.655V95.47h7.83c.143 0 .24.096.24.24v1.613c0 .144-.097.24-.24.24h-7.83v9.697c0 .144-.096.241-.24.241H25.73c-.144 0-.24-.097-.24-.241V80.505c0-2.912.985-5.318 2.954-7.195 1.969-1.852 4.37-2.79 7.156-2.79zm-9.63 36.524h1.368v-9.696c0-.145.096-.24.24-.24h7.829v-1.132h-7.829c-.144 0-.24-.096-.24-.24V80.529c0-2.406.816-4.427 2.401-6.016 1.537-1.515 3.435-2.334 5.62-2.382v-1.13c-2.546.048-4.755.962-6.58 2.67-1.873 1.78-2.81 4.067-2.81 6.858v26.515zm9.63-37.006c-2.907 0-5.428.987-7.47 2.936-2.065 1.973-3.097 4.499-3.097 7.555v26.756c0 .409.312.722.72.722h1.85c.407 0 .72-.313.72-.722V98.07h7.348c.408 0 .72-.313.72-.722v-1.612a.708.708 0 00-.72-.722H28.3V80.529c0-2.142.72-3.922 2.113-5.318 1.417-1.395 3.146-2.093 5.187-2.093.408 0 .72-.313.72-.722v-1.612c0-.433-.312-.746-.72-.746zm-9.15 36.525V80.505c0-2.623.888-4.813 2.665-6.497 1.61-1.516 3.53-2.382 5.764-2.526v.168c-2.114.145-3.939.987-5.476 2.503-1.68 1.684-2.545 3.801-2.545 6.352v15.207c0 .409.312.721.72.721h7.349v.169h-7.349a.708.708 0 00-.72.722v9.215h-.409v.024zm14.576.963c-.144 0-.24-.097-.24-.241V81.323c0-.144.096-.24.24-.24h1.85c.144 0 .24.096.24.24v25.962c0 .144-.096.241-.24.241h-1.85z" fill="#501B73"/><path d="M42.876 81.323v25.962h-1.85V81.323h1.85zm0-.481h-1.85a.482.482 0 00-.48.48v25.963c0 .265.216.481.48.481h1.85c.264 0 .48-.216.48-.481V81.323a.482.482 0 00-.48-.481z" fill="#501B73"/><path d="M41.026 107.766a.482.482 0 01-.48-.481V81.323c0-.265.216-.481.48-.481h1.85c.264 0 .48.216.48.48v25.963a.482.482 0 01-.48.481h-1.85zm1.37-.962v-25h-.89v25h.89z" fill="#501B73"/><path d="M42.876 81.082c.144 0 .24.097.24.24v25.963c0 .144-.096.241-.24.241h-1.85c-.144 0-.24-.097-.24-.241V81.323c0-.144.096-.24.24-.24h1.85zm-1.61 25.962h1.37v-25.48h-1.37v25.48zm1.61-26.443h-1.85a.708.708 0 00-.72.722v25.962c0 .409.312.722.72.722h1.85c.408 0 .72-.313.72-.722V81.323a.74.74 0 00-.72-.722zm-1.13 1.444h.409v24.518h-.408V82.045z" fill="#501B73"/><path d="M59.83 107.742c-2.762 0-5.115-.938-7.06-2.767-1.946-1.853-2.93-4.235-2.93-7.098V70.808c0-.072.048-.12.12-.12h1.849c.072 0 .12.048.12.12v10.395h7.829c.072 0 .12.048.12.12v1.612c0 .072-.048.12-.12.12h-7.829v14.798c0 2.31.768 4.235 2.305 5.751 1.537 1.516 3.41 2.286 5.596 2.286.072 0 .12.048.12.12v1.612c0 .072-.048.12-.12.12z" fill="#A8CE38"/><path d="M51.809 70.808v10.515h7.949v1.612h-7.95v14.918c0 2.358.77 4.307 2.33 5.847 1.561 1.54 3.458 2.31 5.692 2.31v1.612c-2.738 0-5.067-.914-6.988-2.743-1.922-1.829-2.882-4.163-2.882-7.026V70.808h1.849zm0-.24h-1.85c-.143 0-.24.096-.24.24v27.045c0 2.911.985 5.318 2.954 7.194 1.97 1.877 4.371 2.816 7.157 2.816.144 0 .24-.097.24-.241v-1.612a.222.222 0 00-.072-.169.218.218 0 00-.168-.072c-2.161 0-4.01-.746-5.524-2.237-1.512-1.492-2.257-3.393-2.257-5.655V83.2h7.709c.144 0 .24-.097.24-.241v-1.612c0-.144-.096-.24-.24-.24h-7.709V70.831c0-.168-.096-.265-.24-.265z" fill="#A8CE38"/><path d="M59.83 108.223c-2.882 0-5.355-.986-7.397-2.911-2.04-1.949-3.074-4.451-3.074-7.459V70.808c0-.337.265-.602.6-.602h1.85c.336 0 .6.265.6.602v9.913h7.349c.336 0 .6.265.6.602v1.612a.595.595 0 01-.6.602h-7.349v14.316c0 2.214.697 3.97 2.162 5.414 1.465 1.444 3.17 2.141 5.259 2.141.336 0 .6.265.6.602v1.612a.595.595 0 01-.6.601zm-9.27-10.37c0 2.671.913 4.884 2.69 6.593 1.657 1.564 3.65 2.43 5.955 2.574v-.409c-2.137-.12-3.986-.962-5.499-2.478-1.657-1.66-2.522-3.754-2.522-6.256V82.96c0-.337.265-.602.6-.602h7.35v-.409h-7.35a.595.595 0 01-.6-.601v-9.913h-.648v26.419h.024z" fill="#A8CE38"/><path d="M51.809 70.327c.264 0 .48.216.48.481v10.034h7.469c.264 0 .48.216.48.48v1.613a.482.482 0 01-.48.481h-7.469v14.437c0 2.238.72 4.042 2.186 5.486 1.489 1.468 3.218 2.166 5.355 2.166.264 0 .48.216.48.481v1.612a.482.482 0 01-.48.481c-2.834 0-5.307-.962-7.3-2.887-2.018-1.925-3.026-4.403-3.026-7.363v-27.02c0-.266.216-.482.48-.482h1.825zm7.54 36.814v-.65c-2.137-.096-4.01-.914-5.547-2.43-1.657-1.636-2.473-3.706-2.473-6.184V82.96c0-.265.216-.481.48-.481h7.469v-.65h-7.47a.482.482 0 01-.48-.481V71.313h-.888v26.54c0 2.695.913 4.957 2.738 6.665 1.705 1.636 3.77 2.502 6.172 2.623zm-7.54-37.055h-1.85a.708.708 0 00-.72.722v27.045c0 3.056 1.057 5.582 3.098 7.555 2.041 1.949 4.563 2.936 7.469 2.936.408 0 .72-.313.72-.722v-1.612a.708.708 0 00-.72-.722c-2.041 0-3.746-.698-5.187-2.093-1.417-1.42-2.114-3.152-2.114-5.318V83.681h7.229c.408 0 .72-.313.72-.722v-1.612a.708.708 0 00-.72-.722h-7.229v-9.793a.682.682 0 00-.696-.746zM50.68 71.53h.409v9.793c0 .409.312.722.72.722h7.228v.168H51.81a.708.708 0 00-.72.722v14.918c0 2.551.864 4.668 2.545 6.352 1.513 1.492 3.362 2.334 5.475 2.503v.168c-2.233-.144-4.154-.986-5.763-2.526-1.777-1.685-2.666-3.874-2.666-6.497V71.53z" fill="#A8CE38"/><path d="M75.295 108.151c-3.29 0-6.076-1.155-8.309-3.416-2.233-2.262-3.362-5.077-3.362-8.326V81.275c0-.145.096-.24.24-.24h1.85c.144 0 .24.095.24.24v15.134c0 2.575.912 4.861 2.737 6.762 1.801 1.9 4.035 2.863 6.604 2.863 2.57 0 4.875-.963 6.844-2.887 1.97-1.901 2.954-4.187 2.954-6.762V81.251c0-.145.096-.24.24-.24h1.85c.144 0 .24.095.24.24v26.01c0 .144-.096.241-.24.241h-1.85c-.144 0-.24-.097-.24-.241v-4.307c-2.065 3.441-5.355 5.197-9.798 5.197z" fill="#501B73"/><path d="M87.158 81.275v26.01H85.31v-5.269c-1.969 3.922-5.307 5.895-10.038 5.895-3.242 0-5.931-1.107-8.14-3.345-2.186-2.238-3.29-4.957-3.29-8.157V81.275h1.848v15.134c0 2.671.937 4.981 2.81 6.93 1.873 1.973 4.13 2.96 6.772 2.96 2.642 0 4.995-.987 7.013-2.96 2.017-1.973 3.025-4.283 3.025-6.93V81.275h1.85zm0-.482H85.31a.482.482 0 00-.48.482v15.134c0 2.503-.96 4.74-2.882 6.593-1.92 1.877-4.154 2.815-6.676 2.815-2.497 0-4.659-.938-6.436-2.791-1.777-1.853-2.665-4.09-2.665-6.593V81.3a.482.482 0 00-.48-.481h-1.826a.482.482 0 00-.48.48V96.41c0 3.32 1.153 6.16 3.434 8.494 2.282 2.31 5.115 3.489 8.477 3.489 4.25 0 7.445-1.54 9.558-4.62v3.489c0 .265.216.481.48.481h1.85c.264 0 .48-.216.48-.481V81.275c-.024-.265-.216-.482-.505-.482z" fill="#501B73"/><path d="M75.295 108.392c-3.338 0-6.195-1.179-8.477-3.489-2.281-2.31-3.434-5.173-3.434-8.494V81.275c0-.265.216-.482.48-.482h1.85c.264 0 .48.217.48.482v15.134c0 2.527.888 4.74 2.665 6.593 1.753 1.853 3.915 2.791 6.436 2.791 2.522 0 4.755-.938 6.676-2.815 1.921-1.853 2.882-4.09 2.882-6.593V81.251c0-.265.216-.482.48-.482h1.85c.264 0 .48.217.48.482v26.01a.482.482 0 01-.48.481h-1.85a.482.482 0 01-.48-.481v-3.489c-2.113 3.08-5.331 4.62-9.558 4.62zm-10.95-11.983c0 3.056 1.056 5.679 3.145 7.82 2.09 2.118 4.707 3.2 7.781 3.2 4.515 0 7.733-1.9 9.606-5.63a.455.455 0 01.432-.265c.048 0 .072 0 .12.024.216.049.36.241.36.458v4.788h.89V81.756h-.89v14.653c0 2.791-1.056 5.222-3.17 7.291-2.113 2.045-4.562 3.08-7.348 3.08-2.785 0-5.187-1.035-7.132-3.104-1.945-2.045-2.93-4.5-2.93-7.267V81.756h-.864v14.653z" fill="#501B73"/><path d="M87.159 81.034c.143 0 .24.096.24.24v26.011c0 .144-.097.241-.24.241h-1.85c-.144 0-.24-.097-.24-.241v-4.307c-2.041 3.441-5.331 5.197-9.798 5.197-3.29 0-6.076-1.155-8.309-3.416-2.233-2.262-3.362-5.077-3.362-8.326V81.3c0-.145.096-.24.24-.24h1.85c.144 0 .24.095.24.24v15.11c0 2.575.912 4.861 2.737 6.762 1.801 1.9 4.035 2.863 6.604 2.863 2.57 0 4.875-.963 6.844-2.887 1.97-1.901 2.954-4.187 2.954-6.762V81.251c0-.145.096-.24.24-.24h1.85v.023zM75.294 106.54c-2.713 0-5.043-1.01-6.94-3.032-1.897-1.997-2.858-4.379-2.858-7.098V81.515h-1.393V96.41c0 3.128 1.081 5.799 3.218 7.989 2.138 2.165 4.803 3.272 7.973 3.272 4.611 0 7.925-1.949 9.822-5.751.048-.072.12-.144.216-.144h.048c.12.024.192.12.192.241v5.028h1.37v-25.53h-1.37V96.41c0 2.72-1.032 5.101-3.097 7.098-2.066 2.022-4.491 3.032-7.18 3.032zM87.16 80.553h-1.85a.708.708 0 00-.72.722v15.134c0 2.455-.937 4.596-2.81 6.425-1.873 1.828-4.058 2.743-6.508 2.743-2.425 0-4.539-.915-6.268-2.719-1.729-1.829-2.593-3.994-2.593-6.449V81.275a.708.708 0 00-.72-.722h-1.826a.708.708 0 00-.72.722v15.134c0 3.369 1.176 6.28 3.506 8.662 2.33 2.358 5.235 3.562 8.645 3.562 4.035 0 7.157-1.396 9.318-4.115v2.767c0 .409.312.722.72.722h1.85c.408 0 .72-.313.72-.722v-26.01c-.024-.41-.336-.722-.745-.722zm-1.105 1.444h.408v24.566h-.408v-4.547a.697.697 0 00-.553-.698c-.048-.024-.12-.024-.168-.024a.707.707 0 00-.648.409c-1.825 3.657-4.971 5.486-9.39 5.486-3.026 0-5.571-1.059-7.612-3.128-2.042-2.093-3.074-4.644-3.074-7.652V81.997h.408v14.412c0 2.84 1.009 5.342 3.002 7.435 1.993 2.094 4.442 3.176 7.3 3.176 2.834 0 5.355-1.058 7.517-3.152 2.161-2.093 3.242-4.595 3.242-7.459V81.997h-.024z" fill="#501B73"/><path d="M49.96 67.367c-.072 0-.12-.048-.12-.12V40.491c0-2.864.984-5.27 2.93-7.098 1.945-1.853 4.322-2.767 7.06-2.767.072 0 .12.048.12.12v1.612c0 .072-.048.12-.12.12-2.185 0-4.059.77-5.596 2.286s-2.305 3.44-2.305 5.75v15.087h7.949c.072 0 .12.048.12.12v1.613c0 .072-.048.12-.12.12h-7.949v9.817c0 .072-.048.12-.12.12h-1.85v-.024z" fill="#A8CE38"/><path d="M59.83 30.722v1.612c-2.234 0-4.13.77-5.692 2.31-1.56 1.54-2.33 3.489-2.33 5.847v15.206h8.07v1.613h-8.07v9.937H49.96V40.491c0-2.84.96-5.197 2.882-7.026 1.92-1.829 4.25-2.743 6.988-2.743zm0-.24c-2.786 0-5.187.938-7.157 2.814-1.969 1.877-2.953 4.283-2.953 7.195v26.756c0 .144.096.24.24.24h1.849c.144 0 .24-.096.24-.24V57.55h7.829c.144 0 .24-.096.24-.24v-1.613c0-.144-.096-.24-.24-.24h-7.829V40.49c0-2.262.769-4.187 2.257-5.655C55.82 33.344 57.67 32.6 59.83 32.6c.144 0 .24-.097.24-.241v-1.636a.24.24 0 00-.24-.24z" fill="#A8CE38"/><path d="M49.96 67.849a.595.595 0 01-.6-.602V40.491c0-3.008 1.032-5.51 3.073-7.46 2.041-1.924 4.515-2.91 7.397-2.91.336 0 .6.264.6.6v1.613a.595.595 0 01-.6.601c-2.09 0-3.794.698-5.26 2.142-1.44 1.444-2.16 3.2-2.16 5.414v14.605h7.468c.336 0 .6.265.6.602v1.612a.595.595 0 01-.6.601h-7.469v9.336a.595.595 0 01-.6.602h-1.85z" fill="#A8CE38"/><path d="M59.83 30.24c.264 0 .48.217.48.482v1.612a.482.482 0 01-.48.481c-2.113 0-3.867.722-5.355 2.166-1.465 1.467-2.186 3.248-2.186 5.486v14.725h7.589c.264 0 .48.217.48.481v1.613a.482.482 0 01-.48.48h-7.589v9.457a.482.482 0 01-.48.481h-1.85a.482.482 0 01-.48-.481V40.49c0-2.984 1.033-5.462 3.026-7.363 2.018-1.925 4.467-2.887 7.325-2.887zm0-.24c-2.906 0-5.427.986-7.469 2.935-2.065 1.973-3.098 4.5-3.098 7.556v26.756c0 .409.313.722.72.722h1.85c.408 0 .72-.313.72-.722v-9.215h7.349c.408 0 .72-.313.72-.722v-1.613a.708.708 0 00-.72-.721h-7.349V40.49c0-2.166.697-3.922 2.114-5.318 1.44-1.42 3.122-2.093 5.187-2.093.408 0 .72-.313.72-.722v-1.636A.76.76 0 0059.83 30z" fill="#A8CE38"/><path d="M50.44 66.886c-.072 0-.12-.048-.12-.12V40.49c0-2.743.937-5.005 2.762-6.761 1.729-1.637 3.818-2.527 6.243-2.647.024 0 .072 0 .072.024.025.024.049.048.049.096v.65c0 .072-.048.12-.12.12-2.114.096-3.963.914-5.452 2.406-1.633 1.612-2.45 3.657-2.45 6.088v15.206a.37.37 0 00.36.361h7.59c.072 0 .12.049.12.12v.65c0 .072-.048.12-.12.12h-7.59a.37.37 0 00-.36.362v9.456c0 .072-.047.12-.12.12h-.864v.024z" fill="#A8CE38"/><path d="M59.35 31.203v.65c-2.138.096-4.01.914-5.548 2.43-1.657 1.636-2.473 3.705-2.473 6.184v15.206c0 .265.216.482.48.482h7.589v.65h-7.59a.482.482 0 00-.48.48v9.457h-.888V40.49c0-2.695.913-4.957 2.738-6.665 1.705-1.636 3.794-2.503 6.172-2.623zm0-.24c-2.45.096-4.587 1.01-6.34 2.67-1.873 1.78-2.81 4.067-2.81 6.858v26.275c0 .144.096.24.24.24h.889c.144 0 .24-.096.24-.24V57.31c0-.145.096-.241.24-.241h7.589c.144 0 .24-.096.24-.24v-.65c0-.145-.096-.24-.24-.24h-7.59c-.143 0-.24-.097-.24-.242V40.492c0-2.406.817-4.428 2.402-6.016 1.49-1.467 3.29-2.261 5.38-2.358.12 0 .24-.12.24-.24v-.674a.219.219 0 00-.072-.168.218.218 0 00-.169-.073z" fill="#A8CE38"/><path d="M65.257 67.488c-.144 0-.24-.097-.24-.241V41.309c0-.145.096-.24.24-.24h1.85c.143 0 .24.095.24.24V67.27c0 .144-.097.24-.24.24h-1.85v-.023z" fill="#501B73"/><path d="M67.106 41.309V67.27h-1.849V41.309h1.85zm0-.481h-1.849a.482.482 0 00-.48.48v25.963c0 .265.216.481.48.481h1.85c.263 0 .48-.216.48-.481V41.309a.482.482 0 00-.48-.481z" fill="#501B73"/><path d="M65.257 67.728a.482.482 0 01-.48-.481V41.309c0-.265.216-.481.48-.481h1.85c.263 0 .48.216.48.48v25.963a.482.482 0 01-.48.481h-1.85v-.024zm1.369-.962V41.79h-.889v25h.889v-.024z" fill="#501B73"/><path d="M67.106 41.068c.144 0 .24.096.24.24v25.963c0 .144-.096.24-.24.24h-1.849c-.144 0-.24-.096-.24-.24V41.309c0-.145.096-.24.24-.24h1.85zm-1.609 25.938h1.37V41.55h-1.37v25.456zm1.61-26.419h-1.85a.708.708 0 00-.72.722V67.27c0 .41.312.722.72.722h1.85c.407 0 .72-.313.72-.722V41.309a.723.723 0 00-.72-.722zm-1.13 1.444h.409v24.518h-.408V42.031zm18.084 25.818c-2.786 0-5.188-.939-7.157-2.816-1.969-1.877-2.954-4.283-2.954-7.194v-27.07c0-.143.096-.24.24-.24h1.85c.144 0 .24.097.24.24v10.3h7.709c.144 0 .24.095.24.24v1.612c0 .144-.096.24-.24.24h-7.71V57.84c0 2.262.77 4.187 2.258 5.654 1.513 1.492 3.362 2.238 5.523 2.238.145 0 .24.096.24.24v1.613c0 .144-.12.264-.24.264z" fill="#501B73"/><path d="M76.04 30.77v10.539h7.948v1.612H76.04v14.918c0 2.358.768 4.307 2.33 5.847 1.56 1.54 3.457 2.31 5.69 2.31v1.612c-2.737 0-5.067-.914-6.988-2.743-1.92-1.829-2.881-4.163-2.881-7.026V30.77h1.849zm0-.481h-1.85a.482.482 0 00-.48.481v27.045c0 2.983 1.033 5.462 3.026 7.363 2.017 1.9 4.467 2.887 7.3 2.887.265 0 .48-.216.48-.481v-1.612a.482.482 0 00-.48-.481c-2.113 0-3.866-.722-5.355-2.166-1.465-1.468-2.185-3.248-2.185-5.486V43.402h7.469c.264 0 .48-.216.48-.481v-1.612a.482.482 0 00-.48-.481h-7.469V30.77a.448.448 0 00-.456-.481z" fill="#501B73"/><path d="M84.06 68.09c-2.833 0-5.307-.963-7.3-2.888-2.017-1.925-3.026-4.404-3.026-7.363V30.77c0-.265.216-.481.48-.481h1.85c.264 0 .48.216.48.481v10.058h7.469c.264 0 .48.216.48.48v1.613a.482.482 0 01-.48.481h-7.469V57.84c0 2.214.744 4.066 2.185 5.486 1.465 1.444 3.266 2.165 5.356 2.165.264 0 .48.217.48.482v1.612c-.024.289-.24.505-.504.505zm-9.39-10.251c0 2.695.913 4.957 2.739 6.665 1.704 1.636 3.77 2.502 6.171 2.599v-.65c-2.137-.096-4.01-.914-5.547-2.43-1.633-1.636-2.474-3.706-2.474-6.184V42.921c0-.265.216-.481.48-.481h7.47v-.65h-7.47a.482.482 0 01-.48-.481V31.25h-.888v26.59z" fill="#501B73"/><path d="M76.04 30.53c.144 0 .24.096.24.24v10.298h7.709c.144 0 .24.096.24.24v1.613c0 .144-.096.24-.24.24h-7.71V57.84c0 2.262.77 4.187 2.258 5.654 1.513 1.492 3.362 2.238 5.523 2.238.145 0 .24.096.24.24v1.613c0 .144-.095.24-.24.24-2.785 0-5.187-.938-7.156-2.815-1.969-1.877-2.954-4.283-2.954-7.194V30.77c0-.144.096-.24.24-.24h1.85zm7.78 36.813v-1.13c-2.185-.049-4.058-.843-5.619-2.383-1.609-1.588-2.401-3.609-2.401-6.015V42.897c0-.145.096-.24.24-.24h7.708V41.55H76.04c-.144 0-.24-.097-.24-.241V31.01h-1.37v26.804c0 2.767.937 5.077 2.81 6.857 1.802 1.733 4.01 2.623 6.58 2.671zm-7.78-37.295h-1.85a.708.708 0 00-.72.722v27.045c0 3.056 1.057 5.582 3.098 7.555 2.041 1.95 4.563 2.936 7.469 2.936.408 0 .72-.313.72-.722v-1.612a.708.708 0 00-.72-.722c-2.018 0-3.77-.698-5.188-2.093-1.416-1.396-2.113-3.177-2.113-5.318V43.643h7.228c.409 0 .72-.313.72-.722v-1.612a.708.708 0 00-.72-.722h-7.228V30.77c.024-.385-.312-.722-.696-.722zm-1.129 1.444h.408v9.817c0 .409.312.722.72.722h7.23v.168h-7.23a.708.708 0 00-.72.722v14.918c0 2.55.865 4.668 2.546 6.352 1.513 1.492 3.362 2.334 5.475 2.503v.168c-2.233-.144-4.154-.986-5.763-2.526-1.778-1.685-2.666-3.874-2.666-6.497V31.492zm24.615 36.645c-3.29 0-6.076-1.155-8.31-3.416-2.232-2.262-3.361-5.077-3.361-8.326V41.237c0-.145.096-.241.24-.241h1.85c.143 0 .24.096.24.24v15.135c0 2.575.912 4.86 2.737 6.761 1.801 1.901 4.034 2.864 6.604 2.864 2.57 0 4.875-.963 6.844-2.888 1.969-1.9 2.954-4.186 2.954-6.76V41.236c0-.145.096-.241.24-.241h1.849c.144 0 .24.096.24.24v26.011c0 .144-.096.24-.24.24h-1.849c-.144 0-.24-.096-.24-.24V62.94c-2.065 3.44-5.355 5.197-9.798 5.197z" fill="#501B73"/><path d="M111.389 41.237v26.01h-1.849v-5.245c-1.969 3.922-5.307 5.895-10.038 5.895-3.242 0-5.932-1.107-8.141-3.345-2.185-2.238-3.29-4.957-3.29-8.157V41.237h1.85V56.37c0 2.671.936 4.98 2.809 6.93 1.873 1.973 4.13 2.96 6.772 2.96 2.642 0 4.995-.987 7.012-2.96 2.017-1.973 3.026-4.283 3.026-6.93V41.237h1.849zm0-.482h-1.849a.482.482 0 00-.48.482V56.37c0 2.503-.961 4.74-2.882 6.593-1.921 1.877-4.155 2.815-6.676 2.815-2.498 0-4.659-.938-6.436-2.79-1.777-1.854-2.666-4.091-2.666-6.594V41.237a.482.482 0 00-.48-.482h-1.849a.482.482 0 00-.48.482V56.37c0 3.32 1.152 6.16 3.434 8.494 2.281 2.31 5.115 3.489 8.477 3.489 4.251 0 7.444-1.54 9.558-4.62v3.489c0 .265.216.481.48.481h1.849c.264 0 .48-.216.48-.481V41.237a.482.482 0 00-.48-.482z" fill="#501B73"/><path d="M99.526 68.378c-3.338 0-6.196-1.18-8.477-3.489-2.282-2.31-3.434-5.173-3.434-8.494V41.237c0-.265.216-.482.48-.482h1.85c.263 0 .48.217.48.482V56.37c0 2.527.888 4.74 2.665 6.593 1.753 1.853 3.914 2.791 6.436 2.791s4.755-.938 6.676-2.815c1.921-1.853 2.882-4.09 2.882-6.593v-15.11c0-.265.216-.482.48-.482h1.849c.264 0 .48.217.48.482v26.01a.482.482 0 01-.48.481h-1.849a.482.482 0 01-.48-.481v-3.489c-2.114 3.056-5.331 4.62-9.558 4.62zm-10.95-11.983c0 3.056 1.056 5.679 3.145 7.82 2.09 2.118 4.707 3.2 7.781 3.2 4.515 0 7.733-1.9 9.606-5.63a.453.453 0 01.432-.265c.048 0 .072 0 .12.024.216.049.36.241.36.458v4.788h.889V41.718h-.889V56.37c0 2.791-1.056 5.222-3.17 7.29-2.113 2.046-4.562 3.08-7.348 3.08-2.786 0-5.187-1.034-7.132-3.103-1.946-2.045-2.93-4.5-2.93-7.267V41.718h-.889v14.677h.024z" fill="#501B73"/><path d="M111.389 40.996c.144 0 .24.096.24.24v26.011c0 .144-.096.24-.24.24h-1.849c-.144 0-.24-.096-.24-.24V62.94c-2.041 3.44-5.331 5.197-9.798 5.197-3.29 0-6.076-1.155-8.31-3.416-2.232-2.262-3.361-5.077-3.361-8.326V41.237c0-.145.096-.241.24-.241h1.85c.143 0 .24.096.24.24v15.135c0 2.575.912 4.86 2.737 6.761 1.801 1.901 4.034 2.864 6.604 2.864 2.57 0 4.875-.963 6.844-2.888 1.969-1.9 2.954-4.186 2.954-6.76V41.236c0-.145.096-.241.24-.241h1.849zM99.526 66.501c-2.714 0-5.043-1.01-6.94-3.032-1.897-1.997-2.858-4.379-2.858-7.098V41.477h-1.369v14.894c0 3.128 1.08 5.799 3.218 7.989 2.137 2.165 4.803 3.272 7.973 3.272 4.611 0 7.925-1.949 9.822-5.75.048-.073.12-.145.216-.145h.048c.12.024.192.12.192.24v5.03h1.369v-25.53h-1.369v14.894c0 2.72-1.032 5.101-3.098 7.098-2.089 2.021-4.514 3.032-7.204 3.032zm11.863-25.986h-1.849a.708.708 0 00-.72.722V56.37c0 2.454-.937 4.596-2.81 6.425-1.873 1.828-4.059 2.743-6.508 2.743-2.425 0-4.539-.915-6.268-2.72-1.729-1.828-2.593-3.994-2.593-6.448V41.237a.708.708 0 00-.72-.722h-1.85a.708.708 0 00-.72.722V56.37c0 3.369 1.176 6.304 3.506 8.662 2.33 2.358 5.235 3.561 8.645 3.561 4.034 0 7.156-1.395 9.318-4.114v2.767c0 .409.312.722.72.722h1.849a.709.709 0 00.721-.722v-26.01a.724.724 0 00-.721-.722zm-1.104 1.444h.408v24.566h-.408v-4.523a.723.723 0 00-.553-.698c-.048-.024-.12-.024-.168-.024a.75.75 0 00-.648.409c-1.825 3.657-4.971 5.486-9.39 5.486-3.026 0-5.571-1.059-7.613-3.128-2.04-2.093-3.073-4.644-3.073-7.652V41.958h.408v14.413c0 2.84 1.008 5.342 3.001 7.435 1.994 2.094 4.443 3.176 7.301 3.176 2.834 0 5.355-1.058 7.517-3.152 2.161-2.093 3.242-4.596 3.242-7.459V41.958h-.024zm-1.057 64.051c-3.554 0-6.7-2.767-8.405-4.259-2.738-2.406-4.731-5.51-5.98-9.192a1.071 1.071 0 01.048-.817c.12-.265.36-.458.624-.554.12-.048.217-.048.337-.048.456 0 .888.289 1.032.746 1.105 3.32 2.906 6.111 5.356 8.253 1.585 1.395 4.226 3.729 6.94 3.729.408 0 .816-.048 1.177-.168.24-.072 2.353-.698 3.073-2.599.649-1.708-.24-3.416-.264-3.44-.624-1.155-1.657-1.564-3.386-2.238-1.104-.433-2.497-.987-4.082-1.901a24.176 24.176 0 01-4.875-3.706c-.216-.192-.312-.48-.336-.77 0-.288.096-.553.312-.77.216-.216.48-.336.768-.336.288 0 .553.12.769.313a21.406 21.406 0 004.442 3.368c1.441.842 2.69 1.324 3.795 1.757 1.945.77 3.482 1.371 4.466 3.2.048.096 1.393 2.598.385 5.245-1.081 2.839-3.939 3.778-4.515 3.922a5.337 5.337 0 01-1.681.265z" fill="#501B73"/><path d="M101.663 88.06c.24 0 .481.096.673.265a21.899 21.899 0 004.466 3.392c1.441.843 2.714 1.324 3.795 1.78 1.921.77 3.434 1.372 4.418 3.153.048.096 1.369 2.526.385 5.149-1.057 2.791-3.891 3.706-4.443 3.85a6.092 6.092 0 01-1.705.241c-3.53 0-6.676-2.792-8.309-4.235-2.714-2.406-4.707-5.486-5.932-9.144a.968.968 0 01.6-1.227c.097-.024.193-.048.313-.048.408 0 .768.265.912.65 1.129 3.344 2.93 6.136 5.38 8.301 1.537 1.371 4.25 3.754 7.036 3.754.408 0 .816-.049 1.225-.169.24-.072 2.401-.722 3.146-2.671.672-1.78-.265-3.513-.265-3.537-.648-1.179-1.705-1.588-3.434-2.285-1.104-.434-2.473-.987-4.058-1.901a23.91 23.91 0 01-4.851-3.682c-.384-.36-.384-.986-.024-1.371a.984.984 0 01.672-.265zm0-.24c-.336 0-.624.12-.864.36a1.25 1.25 0 00-.336.842c0 .313.12.626.36.843a24.665 24.665 0 004.899 3.73c1.585.913 2.978 1.467 4.082 1.9 1.681.674 2.714 1.083 3.314 2.19 0 .024.889 1.66.24 3.32-.696 1.853-2.761 2.478-3.001 2.527a4.605 4.605 0 01-1.153.144c-2.69 0-5.307-2.31-6.868-3.706-2.426-2.141-4.227-4.908-5.332-8.204a1.214 1.214 0 00-1.128-.819c-.12 0-.264.025-.385.073a1.153 1.153 0 00-.696.601 1.216 1.216 0 00-.072.915c1.249 3.705 3.266 6.809 6.004 9.239 1.705 1.492 4.875 4.307 8.477 4.307.6 0 1.201-.072 1.777-.241.576-.168 3.506-1.106 4.587-3.994 1.032-2.695-.336-5.245-.384-5.341-1.033-1.853-2.57-2.479-4.539-3.249-1.105-.433-2.33-.938-3.771-1.756a21.887 21.887 0 01-4.394-3.345 1.205 1.205 0 00-.817-.337z" fill="#501B73"/><path d="M95.251 86.352c-.312 0-.624-.145-.792-.41-.336-.48-.793-1.25-.913-2.285a4.86 4.86 0 01.409-2.647.978.978 0 01.912-.577c.144 0 .288.024.408.096.505.216.72.818.48 1.323a2.73 2.73 0 00-.24 1.588 2.81 2.81 0 00.553 1.372c.312.433.24 1.059-.216 1.395-.192.073-.409.145-.6.145z" fill="#A8CE38"/><path d="M94.843 80.553c.12 0 .24.024.36.072a.883.883 0 01.433 1.155 3.15 3.15 0 00-.265 1.636c.073.65.36 1.131.577 1.42.288.385.192.938-.192 1.227a.797.797 0 01-.505.168.843.843 0 01-.696-.36 4.762 4.762 0 01-.889-2.238 4.764 4.764 0 01.409-2.599c.12-.313.432-.481.768-.481zm0-.24c-.432 0-.84.264-1.008.649-.265.602-.577 1.54-.433 2.719a5.169 5.169 0 00.937 2.358c.216.289.552.457.888.457.24 0 .457-.072.649-.216.504-.361.6-1.06.24-1.564a2.858 2.858 0 01-.528-1.3c-.072-.65.072-1.179.24-1.516a1.1 1.1 0 00-.553-1.467c-.12-.097-.264-.12-.432-.12z" fill="#A8CE38"/><path d="M100.102 84.282a5.062 5.062 0 00-5.379.41c-2.45 1.852-1.873 4.956-1.85 5.076.361 1.901 1.706 3.008 2.258 3.393.168.12.36.168.553.168.312 0 .6-.144.792-.408.12-.169.168-.386.168-.578.048-.53.12-1.059.192-1.588 0-.048.024-.096.024-.144 1.393 1.54 2.066 2.31 2.882 1.804.576-.36.673-.866-.048-3.368.432.216.937.457 1.513.721a.84.84 0 00.528.193.93.93 0 001.009-.89c.144-1.973-.913-3.85-2.642-4.789zm-.456 2.791c-.288-.144-1.057-.553-1.657-.023-.36.312-.456.818-.264 1.467.072.265.144.505.216.722l-.048-.048c-.528-.578-.96-1.083-1.681-.89-.769.216-.913 1.034-1.08 2.117a3.002 3.002 0 01-.36-.986c-.025-.073-.361-2.046 1.128-3.177.936-.721 2.257-.818 3.314-.24.648.337 1.128.89 1.417 1.564-.385-.217-.72-.361-.985-.505z" fill="#A8CE38"/><path d="M108.579 101.895c-2.809 0-5.019-2.19-5.643-2.887a.605.605 0 01.048-.842.603.603 0 01.841.048c.6.65 2.737 2.791 5.307 2.454a4.25 4.25 0 001.201-.337c.312-.144.648 0 .792.313.144.313 0 .65-.312.794a5.846 5.846 0 01-1.537.433c-.24 0-.48.024-.697.024zm-74.06-55.822a.977.977 0 01-.985-.914c-.048-.746-.024-2.671 1.32-4.38 1.754-2.261 4.395-2.43 5.164-2.43h.144a.996.996 0 01.96 1.035c-.024.53-.456.962-1.008.962h-.12c-.529 0-2.402.12-3.602 1.66-.913 1.18-.937 2.503-.889 3.032a.98.98 0 01-.24.722 1.01 1.01 0 01-.673.337c-.024-.024-.048-.024-.072-.024z" fill="#501B73"/><path d="M40.018 38.47h.144c.48.024.864.409.84.89a.878.878 0 01-.888.842h-.12c-.505 0-2.45.096-3.699 1.708-.936 1.203-.96 2.575-.912 3.104a.9.9 0 01-.817.939h-.072a.868.868 0 01-.864-.818c-.048-.722-.024-2.623 1.297-4.307 1.729-2.19 4.298-2.358 5.09-2.358zm0-.241c-.793 0-3.482.168-5.26 2.478-1.368 1.733-1.392 3.682-1.344 4.452a1.123 1.123 0 001.104 1.034h.072c.289-.024.577-.144.769-.385a1.09 1.09 0 00.264-.818c-.024-.505-.024-1.804.865-2.935 1.176-1.492 2.977-1.612 3.506-1.612h.12c.6 0 1.105-.482 1.129-1.083a1.123 1.123 0 00-1.081-1.155c-.048.024-.096.024-.144.024z" fill="#501B73"/><path d="M34.47 42.151c-.408 0-.84-.072-1.32-.144-1.561-.241-2.786-.458-3.915-1.372-1.513-1.251-2.233-3.368-2.161-4.812.048-.987.456-1.468.792-1.684a1.32 1.32 0 01.72-.217c.337 0 .65.144.865.24.24.12.577.265 1.153.434.456.144.817.216 1.153.289.768.168 1.44.312 2.281.89.168.12.432.288.72.577 1.01.939 1.682 2.406 1.682 3.658 0 .89-.337 1.395-.625 1.66-.312.337-.768.481-1.345.481zm-5.21-5.75c.095.697.48 1.828 1.344 2.55.672.553 1.513.698 2.882.914.264.048.6.096.816.12 0-.457-.312-1.42-1.008-2.093a3.613 3.613 0 00-.433-.337c-.504-.337-.912-.433-1.56-.577-.385-.096-.793-.169-1.321-.337-.265-.072-.505-.169-.72-.24z" fill="#A8CE38"/><path d="M28.587 34.018c.312 0 .6.12.816.217.24.12.577.264 1.153.433.456.144.816.216 1.177.313.744.168 1.417.313 2.233.866.168.12.432.289.72.553.985.939 1.633 2.358 1.657 3.561 0 .843-.312 1.324-.576 1.588-.36.361-.792.482-1.297.482-.384 0-.816-.072-1.296-.145-1.537-.24-2.738-.433-3.843-1.347-1.489-1.227-2.185-3.297-2.113-4.716.048-.939.432-1.396.744-1.588a.984.984 0 01.625-.217zm5.835 6.088c.048-.41-.24-1.54-1.056-2.31-.168-.169-.313-.265-.457-.361-.528-.361-.936-.457-1.584-.602a11.88 11.88 0 01-1.321-.336c-.36-.12-.673-.217-.913-.313.072.77.48 2.069 1.417 2.839.696.577 1.537.722 2.93.938.336.073.768.145.984.145zm-5.835-6.328c-.288 0-.552.072-.793.24-.36.24-.792.746-.864 1.78-.048 1.493.672 3.658 2.233 4.933 1.153.939 2.402 1.155 3.963 1.396.48.072.936.144 1.344.144.625 0 1.081-.168 1.465-.53.313-.288.649-.841.649-1.756 0-1.275-.697-2.767-1.73-3.73-.312-.288-.576-.456-.744-.577-.864-.577-1.537-.721-2.305-.914-.36-.072-.72-.168-1.153-.289a6.19 6.19 0 01-1.129-.433c-.24-.12-.552-.264-.936-.264zm5.595 6.063c-.216-.024-.456-.072-.672-.096-1.345-.217-2.161-.361-2.834-.89-.696-.578-1.129-1.516-1.273-2.286.168.072.36.12.529.168.528.169.96.265 1.32.337.649.144 1.009.24 1.513.553.144.097.264.169.433.337.648.65.912 1.444.984 1.877zm-3.434 20.5c-2.281 0-4.563-3.224-5.475-5.27-1.513-3.368-1.85-8.228.912-10.923.505-.481 1.537-1.347 3.098-1.66.384-.072.793-.12 1.177-.12 1.729 0 3.146.745 4.058 1.371.913-.65 2.354-1.42 4.107-1.42.384 0 .768.049 1.153.12a6.202 6.202 0 013.098 1.661c1.32 1.275 2.017 3.152 2.065 5.438.024 1.804-.385 3.826-1.153 5.51-.96 2.141-3.242 5.293-5.547 5.293-.168 0-.337-.024-.505-.048-.408-.096-.744-.264-1.104-.457-.529-.265-1.129-.577-2.017-.625h-.409c-.816.048-1.32.336-1.8.625-.337.193-.673.385-1.081.481-.24 0-.409.024-.577.024zm-.312-15.784c-.24 0-.504.024-.744.072-1.01.193-1.681.77-2.018 1.083-1.177 1.155-2.281 4.38-.456 8.494.48 1.082 1.225 2.19 1.993 2.983.937.963 1.441.987 1.513.987h.048c.096-.024.312-.145.48-.24.577-.338 1.441-.819 2.762-.891h.649c1.368.072 2.257.53 2.905.866.216.12.457.24.577.265h.072c.696 0 2.497-1.684 3.578-4.042 1.225-2.695 1.489-6.593-.456-8.494a4.173 4.173 0 00-1.994-1.083 3.66 3.66 0 00-.72-.072c-1.73 0-3.098 1.179-3.362 1.42l-.24.216c-.024.024-.048.024-.072.024l-.745.12h-.024c-.024 0-.048 0-.072-.024l-.36-.288c-.24-.24-1.609-1.396-3.314-1.396z" fill="#A8CE38"/><path d="M38.6 42.464c.361 0 .745.024 1.13.12 1.513.289 2.545 1.155 3.025 1.612 1.297 1.251 1.994 3.104 2.018 5.342A13.131 13.131 0 0143.62 55c-.96 2.117-3.218 5.221-5.451 5.221-.168 0-.337-.024-.48-.048-.385-.072-.721-.265-1.081-.433-.529-.289-1.153-.602-2.066-.65h-.432c-.84.048-1.345.337-1.849.626-.336.192-.672.385-1.057.481-.168.048-.336.048-.504.048-2.113 0-4.347-2.935-5.355-5.197-1.465-3.32-1.825-8.133.888-10.78.48-.48 1.513-1.323 3.026-1.612.409-.072.793-.12 1.153-.12 1.753 0 3.194.794 4.058 1.395.865-.65 2.33-1.467 4.13-1.467zm-4.394 3.681l-.36-.289c-.288-.264-1.681-1.42-3.41-1.42-.24 0-.504.025-.768.073-1.033.217-1.73.794-2.066 1.107-1.2 1.179-2.33 4.451-.48 8.638.48 1.083 1.225 2.214 2.017 3.032.793.818 1.345 1.034 1.585 1.034h.072c.12-.024.312-.144.529-.264.552-.313 1.416-.819 2.713-.89h.625c1.344.072 2.209.529 2.857.866.24.12.456.24.6.264h.097c.816 0 2.641-1.828 3.674-4.114 1.249-2.743 1.489-6.69-.48-8.614a3.98 3.98 0 00-2.81-1.18c-1.753 0-3.146 1.18-3.434 1.468l-.216.193-.745.096zm4.395-3.922c-1.73 0-3.17.746-4.107 1.396-.936-.626-2.329-1.348-4.058-1.348a6.175 6.175 0 00-4.347 1.805c-2.785 2.743-2.45 7.651-.936 11.068a12.536 12.536 0 002.305 3.513c.769.842 1.97 1.829 3.266 1.829.192 0 .36-.024.552-.072.433-.097.769-.29 1.105-.506.504-.288.96-.553 1.753-.601h.408c.865.048 1.441.337 1.97.625.384.193.72.385 1.128.457.168.049.36.049.529.049 2.377 0 4.683-3.225 5.667-5.366.769-1.708 1.2-3.73 1.153-5.558-.048-2.286-.769-4.211-2.09-5.51a6.285 6.285 0 00-3.145-1.685 6.212 6.212 0 00-1.153-.096zm-4.395 4.163h.024l.745-.12a.132.132 0 00.12-.073l.216-.192c.264-.24 1.609-1.396 3.266-1.396.24 0 .456.024.696.072.96.193 1.633.746 1.945 1.035 1.417 1.396 2.042 4.788.433 8.35a10.407 10.407 0 01-1.873 2.839c-.769.818-1.345 1.13-1.585 1.13h-.048c-.096-.024-.337-.144-.529-.24-.672-.337-1.56-.818-2.953-.89h-.673c-1.345.072-2.233.577-2.81.914a2.883 2.883 0 01-.456.24c-.024 0-.504-.023-1.417-.962-.768-.794-1.489-1.9-1.969-2.96-1.801-4.066-.744-7.218.432-8.373a3.9 3.9 0 011.945-1.034c.24-.049.48-.073.72-.073 1.658 0 3.003 1.131 3.267 1.348l.36.313c.048.048.096.072.144.072z" fill="#A8CE38"/><path d="M28.61 50.404a.617.617 0 01-.6-.505 3.671 3.671 0 01.24-1.997 3.608 3.608 0 011.514-1.709.592.592 0 01.816.217.594.594 0 01-.216.818 2.378 2.378 0 00-1.009 1.13 2.522 2.522 0 00-.168 1.324c.048.337-.168.626-.504.698 0 .024-.024.024-.072.024z" fill="#A8CE38"/><path d="M66.17 35.63a2.031 2.031 0 01-2.018-2.02c0-1.108.913-2.022 2.018-2.022 1.104 0 2.017.914 2.017 2.021a2.016 2.016 0 01-2.017 2.021z" fill="#501B73"/><path d="M66.17 31.853c.984 0 1.777.794 1.777 1.78 0 .987-.793 1.78-1.777 1.78a1.775 1.775 0 01-1.777-1.78c0-.986.792-1.78 1.777-1.78zm0-.482a2.257 2.257 0 00-2.258 2.262 2.257 2.257 0 104.515 0 2.257 2.257 0 00-2.257-2.262zM41.939 75.668a2.031 2.031 0 01-2.017-2.02c0-1.108.912-2.022 2.017-2.022s2.017.914 2.017 2.021a2.016 2.016 0 01-2.017 2.021z" fill="#501B73"/><path d="M41.939 71.867c.984 0 1.777.794 1.777 1.78 0 .987-.793 1.78-1.777 1.78a1.775 1.775 0 01-1.777-1.78c0-.986.792-1.78 1.777-1.78zm0-.482a2.257 2.257 0 00-2.258 2.262 2.257 2.257 0 104.515 0 2.257 2.257 0 00-2.257-2.262z" fill="#501B73"/></svg>