<svg enable-background="new 0 0 140 140" viewBox="0 0 140 140" xmlns="http://www.w3.org/2000/svg"><circle cx="70" cy="70" fill="#fff" r="68" stroke="#a8ce38" stroke-width="4"/><path d="m25.7 107.5c-.1 0-.2-.1-.2-.2v-26.8c0-2.9 1-5.3 3-7.2s4.4-2.8 7.2-2.8c.1 0 .2.1.2.2v1.6c0 .1 0 .1-.1.2 0 0-.1.1-.2.1-2.2 0-4 .7-5.5 2.2s-2.3 3.4-2.3 5.7v15h7.8c.1 0 .2.1.2.2v1.6c0 .1-.1.2-.2.2h-7.8v9.7c0 .1-.1.2-.2.2z" fill="#501b73"/><path d="m35.6 70.8v1.6c-2.2 0-4.1.8-5.7 2.3s-2.3 3.5-2.3 5.8v15.2h8.1v1.6h-8.1v9.9h-1.8v-26.7c0-2.8 1-5.2 2.9-7 1.8-1.8 4.2-2.7 6.9-2.7zm0-.5c-2.8 0-5.3 1-7.3 2.9s-3 4.4-3 7.4v26.8c0 .3.2.5.5.5h1.9c.3 0 .5-.2.5-.5v-9.5h7.6c.3 0 .5-.2.5-.5v-1.6c0-.3-.2-.5-.5-.5h-7.6v-14.8c0-2.2.7-4 2.2-5.5s3.2-2.2 5.4-2.2c.3 0 .5-.2.5-.5v-1.6c-.2-.2-.4-.4-.7-.4z" fill="#501b73"/><path d="m25.7 107.8c-.3 0-.5-.2-.5-.5v-26.8c0-3 1-5.5 3-7.4s4.5-2.9 7.3-2.9c.3 0 .5.2.5.5v1.6c0 .3-.2.5-.5.5-2.1 0-3.9.7-5.4 2.2-1.5 1.4-2.2 3.3-2.2 5.5v14.7h7.6c.3 0 .5.2.5.5v1.6c0 .3-.2.5-.5.5h-7.6v9.5c0 .3-.2.5-.5.5h-1.7c0-.1 0 0 0 0zm1.4-1v-9.5c0-.3.2-.5.5-.5h7.6v-.7h-7.6c-.3 0-.5-.2-.5-.5v-15.1c0-2.5.8-4.5 2.5-6.2 1.5-1.5 3.4-2.3 5.5-2.4v-.7c-2.4.1-4.5 1-6.2 2.6-1.8 1.7-2.7 4-2.7 6.7v26.3z" fill="#501b73"/><path d="m35.6 70.5c.1 0 .2.1.2.2v1.6c0 .1-.1.2-.2.2-2.2 0-4 .7-5.5 2.2s-2.3 3.4-2.3 5.7v15h7.8c.1 0 .2.1.2.2v1.6c0 .1-.1.2-.2.2h-7.8v9.7c0 .1-.1.2-.2.2h-1.8c-.1 0-.2-.1-.2-.2v-26.6c0-2.9 1-5.3 3-7.2 1.8-1.8 4.2-2.8 7-2.8zm-9.6 36.5h1.4v-9.7c0-.1.1-.2.2-.2h7.8v-1.1h-7.8c-.1 0-.2-.1-.2-.2v-15.3c0-2.4.8-4.4 2.4-6 1.5-1.5 3.4-2.3 5.6-2.4v-1.1c-2.5 0-4.8 1-6.6 2.7-1.9 1.8-2.8 4.1-2.8 6.9zm9.6-37c-2.9 0-5.4 1-7.5 2.9-2.1 2-3.1 4.5-3.1 7.6v26.8c0 .4.3.7.7.7h1.9c.4 0 .7-.3.7-.7v-9.2h7.3c.4 0 .7-.3.7-.7v-1.6c0-.4-.3-.7-.7-.7h-7.4v-14.6c0-2.1.7-3.9 2.1-5.3s3.1-2.1 5.2-2.1c.4 0 .7-.3.7-.7v-1.6c.1-.4-.2-.8-.6-.8zm-9.2 36.6v-26.1c0-2.6.9-4.8 2.7-6.5 1.6-1.5 3.5-2.4 5.8-2.5v.2c-2.1.1-3.9 1-5.5 2.5-1.7 1.7-2.5 3.8-2.5 6.4v15.2c0 .4.3.7.7.7h7.3v.2h-7.3c-.4 0-.7.3-.7.7v9.2zm14.6.9c-.1 0-.2-.1-.2-.2v-26c0-.1.1-.2.2-.2h1.8c.1 0 .2.1.2.2v26c0 .1-.1.2-.2.2z" fill="#501b73"/><path d="m42.9 81.3v26h-1.9v-26zm0-.5h-1.9c-.3 0-.5.2-.5.5v26c0 .3.2.5.5.5h1.8c.3 0 .5-.2.5-.5v-26c.1-.2-.2-.5-.4-.5z" fill="#501b73"/><path d="m41 107.8c-.3 0-.5-.2-.5-.5v-26c0-.3.2-.5.5-.5h1.8c.3 0 .5.2.5.5v26c0 .3-.2.5-.5.5zm1.4-1v-25h-.9v25z" fill="#501b73"/><path d="m42.9 81.1c.1 0 .2.1.2.2v26c0 .1-.1.2-.2.2h-1.9c-.1 0-.2-.1-.2-.2v-26c0-.1.1-.2.2-.2zm-1.6 25.9h1.4v-25.4h-1.4zm1.6-26.4h-1.9c-.4 0-.7.3-.7.7v26c0 .4.3.7.7.7h1.8c.4 0 .7-.3.7-.7v-26c.1-.4-.2-.7-.6-.7zm-1.2 1.4h.4v24.5h-.4z" fill="#501b73"/><path d="m59.8 107.7c-2.8 0-5.1-.9-7.1-2.8-1.9-1.9-2.9-4.2-2.9-7.1v-27c0-.1 0-.1.1-.1h1.8c.1 0 .1 0 .1.1v10.4h7.8c.1 0 .1 0 .1.1v1.6c0 .1 0 .1-.1.1h-7.8v14.8c0 2.3.8 4.2 2.3 5.8s3.4 2.3 5.6 2.3c.1 0 .1 0 .1.1v1.6c.1.1.1.1 0 .1z" fill="#a8ce38"/><path d="m51.8 70.8v10.5h7.9v1.6h-8v14.9c0 2.4.8 4.3 2.3 5.8 1.6 1.5 3.5 2.3 5.7 2.3v1.6c-2.7 0-5.1-.9-7-2.7s-2.9-4.2-2.9-7v-27zm0-.2h-1.8c-.1 0-.2.1-.2.2v27c0 2.9 1 5.3 3 7.2s4.4 2.8 7.2 2.8c.1 0 .2-.1.2-.2v-1.6c0-.1 0-.1-.1-.2 0 0-.1-.1-.2-.1-2.2 0-4-.7-5.5-2.2s-2.3-3.4-2.3-5.7v-14.6h7.7c.1 0 .2-.1.2-.2v-1.6c0-.1-.1-.2-.2-.2h-7.8v-10.4c0-.1 0-.2-.2-.2z" fill="#a8ce38"/><path d="m59.8 108.2c-2.9 0-5.4-1-7.4-2.9s-3.1-4.5-3.1-7.5v-27c0-.3.3-.6.6-.6h1.8c.3 0 .6.3.6.6v9.9h7.3c.3 0 .6.3.6.6v1.6c0 .3-.3.6-.6.6h-7.3v14.3c0 2.2.7 4 2.2 5.4s3.2 2.1 5.3 2.1c.3 0 .6.3.6.6v1.6c0 .5-.2.7-.6.7zm-9.2-10.3c0 2.7.9 4.9 2.7 6.6 1.7 1.6 3.7 2.4 6 2.6v-.4c-2.1-.1-4-1-5.5-2.5-1.7-1.7-2.5-3.8-2.5-6.3v-14.9c0-.3.3-.6.6-.6h7.3v-.4h-7.3c-.3 0-.6-.3-.6-.6v-9.9h-.6z" fill="#a8ce38"/><path d="m51.8 70.3c.3 0 .5.2.5.5v10h7.5c.3 0 .5.2.5.5v1.6c0 .3-.2.5-.5.5h-7.5v14.4c0 2.2.7 4 2.2 5.5s3.2 2.2 5.4 2.2c.3 0 .5.2.5.5v1.6c0 .3-.2.5-.5.5-2.8 0-5.3-1-7.3-2.9s-3-4.4-3-7.4v-27c0-.3.2-.5.5-.5zm7.5 36.8v-.7c-2.1-.1-4-.9-5.5-2.4-1.7-1.6-2.5-3.7-2.5-6.2v-14.8c0-.3.2-.5.5-.5h7.5v-.7h-7.5c-.3 0-.5-.2-.5-.5v-10h-.9v26.5c0 2.7.9 5 2.7 6.7s3.8 2.5 6.2 2.6zm-7.5-37h-1.8c-.4 0-.7.3-.7.7v27c0 3.1 1.1 5.6 3.1 7.6 2 1.9 4.6 2.9 7.5 2.9.4 0 .7-.3.7-.7v-1.6c0-.4-.3-.7-.7-.7-2 0-3.7-.7-5.2-2.1-1.4-1.4-2.1-3.2-2.1-5.3v-14.2h7.2c.4 0 .7-.3.7-.7v-1.6c0-.4-.3-.7-.7-.7h-7.2v-9.8c-.1-.4-.3-.8-.8-.8zm-1.1 1.4h.4v9.8c0 .4.3.7.7.7h7.2v.2h-7.2c-.4 0-.7.3-.7.7v14.9c0 2.6.9 4.7 2.5 6.4 1.5 1.5 3.4 2.3 5.5 2.5v.2c-2.2-.1-4.2-1-5.8-2.5-1.8-1.7-2.7-3.9-2.7-6.5z" fill="#a8ce38"/><path d="m75.3 108.2c-3.3 0-6.1-1.2-8.3-3.4-2.2-2.3-3.4-5.1-3.4-8.3v-15.2c0-.1.1-.2.2-.2h1.9c.1 0 .2.1.2.2v15.1c0 2.6.9 4.9 2.7 6.8s4 2.9 6.6 2.9 4.9-1 6.8-2.9c2-1.9 3-4.2 3-6.8v-15.1c0-.1.1-.2.2-.2h1.8c.1 0 .2.1.2.2v26c0 .1-.1.2-.2.2h-1.8c-.1 0-.2-.1-.2-.2v-4.3c-2 3.4-5.3 5.2-9.7 5.2z" fill="#501b73"/><path d="m87.2 81.3v26h-1.8v-5.3c-2 3.9-5.3 5.9-10 5.9-3.2 0-5.9-1.1-8.1-3.3s-3.3-5-3.3-8.2v-15.1h1.8v15.1c0 2.7.9 5 2.8 6.9 1.9 2 4.1 3 6.8 3 2.6 0 5-1 7-3s3-4.3 3-6.9v-15.1zm0-.5h-1.8c-.3 0-.5.2-.5.5v15.1c0 2.5-1 4.7-2.9 6.6s-4.2 2.8-6.7 2.8-4.7-.9-6.4-2.8-2.7-4.1-2.7-6.6v-15.1c0-.3-.2-.5-.5-.5h-1.8c-.3 0-.5.2-.5.5v15.1c0 3.3 1.2 6.2 3.4 8.5 2.3 2.3 5.1 3.5 8.5 3.5 4.2 0 7.4-1.5 9.6-4.6v3.5c0 .3.2.5.5.5h1.8c.3 0 .5-.2.5-.5v-26c-.1-.3-.3-.5-.5-.5z" fill="#501b73"/><path d="m75.3 108.4c-3.3 0-6.2-1.2-8.5-3.5s-3.4-5.2-3.4-8.5v-15.1c0-.3.2-.5.5-.5h1.9c.3 0 .5.2.5.5v15.1c0 2.5.9 4.7 2.7 6.6s3.9 2.8 6.4 2.8 4.8-.9 6.7-2.8 2.9-4.1 2.9-6.6v-15.1c0-.3.2-.5.5-.5h1.8c.3 0 .5.2.5.5v26c0 .3-.2.5-.5.5h-1.8c-.3 0-.5-.2-.5-.5v-3.5c-2.3 3.1-5.5 4.6-9.7 4.6zm-11-12c0 3.1 1.1 5.7 3.1 7.8 2.1 2.1 4.7 3.2 7.8 3.2 4.5 0 7.7-1.9 9.6-5.6.1-.2.2-.3.4-.3h.1c.2 0 .4.2.4.5v4.8h.9v-25h-.9v14.7c0 2.8-1.1 5.2-3.2 7.3-2.1 2-4.6 3.1-7.3 3.1-2.8 0-5.2-1-7.1-3.1-1.9-2-2.9-4.5-2.9-7.3v-14.7h-.9z" fill="#501b73"/><path d="m87.2 81c.1 0 .2.1.2.2v26c0 .1-.1.2-.2.2h-1.8c-.1 0-.2-.1-.2-.2v-4.2c-2 3.4-5.3 5.2-9.8 5.2-3.3 0-6.1-1.2-8.3-3.4-2.2-2.3-3.4-5.1-3.4-8.3v-15.2c0-.1.1-.2.2-.2h1.9c.1 0 .2.1.2.2v15.1c0 2.6.9 4.9 2.7 6.8s4 2.9 6.6 2.9 4.9-1 6.8-2.9c2-1.9 3-4.2 3-6.8v-15.1c0-.1.1-.2.2-.2zm-11.9 25.5c-2.7 0-5-1-6.9-3s-2.9-4.4-2.9-7.1v-14.9h-1.4v14.9c0 3.1 1.1 5.8 3.2 8s4.8 3.3 8 3.3c4.6 0 7.9-1.9 9.8-5.8 0-.1.1-.1.2-.1.1 0 .2.1.2.2v5h1.4v-25.5h-1.4v14.9c0 2.7-1 5.1-3.1 7.1-2 2-4.4 3-7.1 3zm11.9-25.9h-1.8c-.4 0-.7.3-.7.7v15.1c0 2.5-.9 4.6-2.8 6.4s-4.1 2.7-6.5 2.7-4.5-.9-6.3-2.7c-1.7-1.8-2.6-4-2.6-6.4v-15.1c0-.4-.3-.7-.7-.7h-1.8c-.4 0-.7.3-.7.7v15.1c0 3.4 1.2 6.3 3.5 8.7s5.2 3.6 8.6 3.6c4 0 7.2-1.4 9.3-4.1v2.8c0 .4.3.7.7.7h1.8c.4 0 .7-.3.7-.7v-26c0-.5-.3-.8-.7-.8zm-1.1 1.4h.4v24.6h-.4v-4.6c0-.3-.2-.6-.6-.7 0 0-.1 0-.2 0-.3 0-.5.2-.6.4-1.8 3.7-5 5.5-9.4 5.5-3 0-5.6-1.1-7.6-3.1-2-2.1-3.1-4.6-3.1-7.7v-14.4h.4v14.4c0 2.8 1 5.3 3 7.4s4.4 3.2 7.3 3.2c2.8 0 5.4-1.1 7.5-3.2 2.2-2.1 3.2-4.6 3.2-7.5z" fill="#501b73"/><path d="m50 67.4c-.1 0-.1 0-.1-.1v-26.8c0-2.9 1-5.3 2.9-7.1 1.9-1.9 4.3-2.8 7.1-2.8.1 0 .1 0 .1.1v1.6c0 .1 0 .1-.1.1-2.2 0-4.1.8-5.6 2.3s-2.3 3.4-2.3 5.8v15.1h7.9c.1 0 .1 0 .1.1v1.6c0 .1 0 .1-.1.1h-7.9v9.8c0 .1 0 .1-.1.1z" fill="#a8ce38"/><path d="m59.8 30.7v1.6c-2.2 0-4.1.8-5.7 2.3s-2.3 3.5-2.3 5.8v15.2h8.1v1.6h-8.1v9.9h-1.8v-26.6c0-2.8 1-5.2 2.9-7 1.9-1.9 4.2-2.8 6.9-2.8zm0-.2c-2.8 0-5.2.9-7.2 2.8s-3 4.3-3 7.2v26.8c0 .1.1.2.2.2h1.8c.1 0 .2-.1.2-.2v-9.7h7.8c.1 0 .2-.1.2-.2v-1.6c0-.1-.1-.2-.2-.2h-7.6v-15c0-2.3.8-4.2 2.3-5.7s3.4-2.2 5.5-2.2c.1 0 .2-.1.2-.2v-1.6c.1-.3 0-.4-.2-.4z" fill="#a8ce38"/><path d="m50 67.8c-.3 0-.6-.3-.6-.6v-26.7c0-3 1-5.5 3.1-7.5 2-1.9 4.5-2.9 7.4-2.9.3 0 .6.3.6.6v1.6c0 .3-.3.6-.6.6-2.1 0-3.8.7-5.3 2.1-1.4 1.4-2.2 3.2-2.2 5.4v14.6h7.5c.3 0 .6.3.6.6v1.6c0 .3-.3.6-.6.6h-7.5v9.3c0 .3-.3.6-.6.6z" fill="#a8ce38"/><path d="m59.8 30.2c.3 0 .5.2.5.5v1.6c0 .3-.2.5-.5.5-2.1 0-3.9.7-5.4 2.2s-2.2 3.2-2.2 5.5v14.7h7.6c.3 0 .5.2.5.5v1.6c0 .3-.2.5-.5.5h-7.6v9.5c0 .3-.2.5-.5.5h-1.7c-.3 0-.5-.2-.5-.5v-26.8c0-3 1-5.5 3-7.4s4.5-2.9 7.3-2.9zm0-.2c-2.9 0-5.4 1-7.5 2.9-2.1 2-3.1 4.5-3.1 7.6v26.8c0 .4.3.7.7.7h1.8c.4 0 .7-.3.7-.7v-9.3h7.3c.4 0 .7-.3.7-.7v-1.6c0-.4-.3-.7-.7-.7h-7.3v-14.5c0-2.2.7-3.9 2.1-5.3s3.1-2.1 5.2-2.1c.4 0 .7-.3.7-.7v-1.6c.2-.5-.2-.8-.6-.8z" fill="#a8ce38"/><path d="m50.4 66.9c-.1 0-.1 0-.1-.1v-26.3c0-2.7.9-5 2.8-6.8 1.7-1.6 3.8-2.5 6.2-2.6h.1v.1.6c0 .1 0 .1-.1.1-2.1.1-4 .9-5.5 2.4-1.6 1.6-2.5 3.7-2.5 6.1v15.2c0 .2.2.4.4.4h7.6c.1 0 .1 0 .1.1v.7c0 .1 0 .1-.1.1h-7.6c-.2 0-.4.2-.4.4v9.5c0 .1 0 .1-.1.1z" fill="#a8ce38"/><path d="m59.3 31.2v.6c-2.1.1-4 .9-5.5 2.4-1.7 1.6-2.5 3.7-2.5 6.2v15.2c0 .3.2.5.5.5h7.6v.7h-7.6c-.3 0-.5.2-.5.5v9.5h-.9v-26.3c0-2.7.9-5 2.7-6.7 1.8-1.6 3.9-2.5 6.2-2.6zm0-.2c-2.5.1-4.6 1-6.3 2.7-1.9 1.8-2.8 4.1-2.8 6.9v26.3c0 .1.1.2.2.2h.9c.1 0 .2-.1.2-.2v-9.5c0-.1.1-.2.2-.2h7.6c.1 0 .2-.1.2-.2v-.7c0-.1-.1-.2-.2-.2h-7.6c-.1 0-.2-.1-.2-.2v-15.4c0-2.4.8-4.4 2.4-6 1.5-1.5 3.3-2.3 5.4-2.4.1 0 .2-.1.2-.2v-.7c0-.1 0-.1-.1-.2.1 0 0 0-.1 0z" fill="#a8ce38"/><g fill="#501b73"><path d="m65.3 67.5c-.1 0-.2-.1-.2-.2v-26c0-.1.1-.2.2-.2h1.8c.1 0 .2.1.2.2v26c0 .1-.1.2-.2.2z"/><path d="m67.1 41.3v26h-1.8v-26zm0-.5h-1.8c-.3 0-.5.2-.5.5v26c0 .3.2.5.5.5h1.8c.3 0 .5-.2.5-.5v-26c0-.3-.2-.5-.5-.5z"/><path d="m65.3 67.7c-.3 0-.5-.2-.5-.5v-25.9c0-.3.2-.5.5-.5h1.8c.3 0 .5.2.5.5v26c0 .3-.2.5-.5.5zm1.3-.9v-25h-.9v25z"/><path d="m67.1 41.1c.1 0 .2.1.2.2v26c0 .1-.1.2-.2.2h-1.8c-.1 0-.2-.1-.2-.2v-26c0-.1.1-.2.2-.2zm-1.6 25.9h1.4v-25.5h-1.4zm1.6-26.4h-1.8c-.4 0-.7.3-.7.7v26c0 .4.3.7.7.7h1.8c.4 0 .7-.3.7-.7v-26c0-.4-.3-.7-.7-.7zm-1.1 1.4h.4v24.5h-.4zm18.1 25.8c-2.8 0-5.2-.9-7.2-2.8s-3-4.3-3-7.2v-27c0-.1.1-.2.2-.2h1.9c.1 0 .2.1.2.2v10.3h7.8c.1 0 .2.1.2.2v1.6c0 .1-.1.2-.2.2h-7.7v14.7c0 2.3.8 4.2 2.3 5.7s3.4 2.2 5.5 2.2c.1 0 .2.1.2.2v1.6c0 .2-.1.3-.2.3z"/><path d="m76 30.8v10.5h8v1.6h-8v14.9c0 2.4.8 4.3 2.3 5.8 1.6 1.5 3.5 2.3 5.7 2.3v1.6c-2.7 0-5.1-.9-7-2.7s-2.9-4.2-2.9-7v-27zm0-.5h-1.8c-.3 0-.5.2-.5.5v27c0 3 1 5.5 3 7.4s4.5 2.9 7.3 2.9c.3 0 .5-.2.5-.5v-1.6c0-.3-.2-.5-.5-.5-2.1 0-3.9-.7-5.4-2.2s-2.2-3.2-2.2-5.5v-14.4h7.6c.3 0 .5-.2.5-.5v-1.6c0-.3-.2-.5-.5-.5h-7.5v-10c0-.3-.2-.5-.5-.5.1 0 .1 0 0 0z"/><path d="m84.1 68.1c-2.8 0-5.3-1-7.3-2.9s-3-4.4-3-7.4v-27c0-.3.2-.5.5-.5h1.8c.3 0 .5.2.5.5v10.1h7.4c.3 0 .5.2.5.5v1.6c0 .3-.2.5-.5.5h-7.5v14.4c0 2.2.7 4.1 2.2 5.5s3.3 2.2 5.4 2.2c.3 0 .5.2.5.5v1.6c-.1.2-.3.4-.5.4zm-9.4-10.3c0 2.7.9 5 2.7 6.7 1.7 1.6 3.8 2.5 6.2 2.6v-.7c-2.1-.1-4-.9-5.5-2.4-1.6-1.6-2.5-3.7-2.5-6.2v-14.9c0-.3.2-.5.5-.5h7.5v-.7h-7.6c-.3 0-.5-.2-.5-.5v-10h-.9z"/><path d="m76 30.5c.1 0 .2.1.2.2v10.3h7.8c.1 0 .2.1.2.2v1.6c0 .1-.1.2-.2.2h-7.7v14.7c0 2.3.8 4.2 2.3 5.7s3.4 2.2 5.5 2.2c.1 0 .2.1.2.2v1.6c0 .1-.1.2-.2.2-2.8 0-5.2-.9-7.2-2.8s-3-4.3-3-7.2v-27c0-.1.1-.2.2-.2h1.9zm7.8 36.8v-1.1c-2.2 0-4.1-.8-5.6-2.4-1.6-1.6-2.4-3.6-2.4-6v-14.9c0-.1.1-.2.2-.2h7.7v-1.1h-7.7c-.1 0-.2-.1-.2-.2v-10.4h-1.4v26.8c0 2.8.9 5.1 2.8 6.9 1.8 1.7 4 2.6 6.6 2.6zm-7.8-37.3h-1.8c-.4 0-.7.3-.7.7v27c0 3.1 1.1 5.6 3.1 7.6 2 1.9 4.6 2.9 7.5 2.9.4 0 .7-.3.7-.7v-1.5c0-.4-.3-.7-.7-.7-2 0-3.8-.7-5.2-2.1s-2.1-3.2-2.1-5.3v-14.3h7.2c.4 0 .7-.3.7-.7v-1.6c0-.4-.3-.7-.7-.7h-7.2v-9.8c0-.4-.4-.8-.8-.8zm-1.1 1.5h.4v9.8c0 .4.3.7.7.7h7.2v.2h-7.2c-.4 0-.7.3-.7.7v14.9c0 2.5.9 4.7 2.5 6.4 1.5 1.5 3.4 2.3 5.5 2.5v.2c-2.2-.1-4.2-1-5.8-2.5-1.8-1.7-2.7-3.9-2.7-6.5.1-.1.1-26.4.1-26.4zm24.6 36.6c-3.3 0-6.1-1.2-8.3-3.4-2.2-2.3-3.4-5.1-3.4-8.3v-15.2c0-.1.1-.2.2-.2h1.8c.1 0 .2.1.2.2v15.1c0 2.6.9 4.9 2.7 6.8s4 2.9 6.6 2.9 4.9-1 6.8-2.9c2-1.9 3-4.2 3-6.8v-15.1c0-.1.1-.2.2-.2h1.8c.1 0 .2.1.2.2v26c0 .1-.1.2-.2.2h-1.8c-.1 0-.2-.1-.2-.2v-4.3c-1.8 3.5-5.1 5.2-9.6 5.2z"/><path d="m111.4 41.2v26h-1.8v-5.2c-2 3.9-5.3 5.9-10 5.9-3.2 0-5.9-1.1-8.1-3.3s-3.3-5-3.3-8.2v-15.2h1.8v15.1c0 2.7.9 5 2.8 6.9 1.9 2 4.1 3 6.8 3 2.6 0 5-1 7-3s3-4.3 3-6.9v-15.1zm0-.4h-1.8c-.3 0-.5.2-.5.5v15.1c0 2.5-1 4.7-2.9 6.6s-4.2 2.8-6.7 2.8-4.7-.9-6.4-2.8c-1.8-1.9-2.7-4.1-2.7-6.6v-15.2c0-.3-.2-.5-.5-.5h-1.8c-.3 0-.5.2-.5.5v15.1c0 3.3 1.2 6.2 3.4 8.5 2.3 2.3 5.1 3.5 8.5 3.5 4.3 0 7.4-1.5 9.6-4.6v3.5c0 .3.2.5.5.5h1.8c.3 0 .5-.2.5-.5v-26c0-.2-.2-.4-.5-.4z"/><path d="m99.5 68.4c-3.3 0-6.2-1.2-8.5-3.5s-3.4-5.2-3.4-8.5v-15.2c0-.3.2-.5.5-.5h1.8c.3 0 .5.2.5.5v15.1c0 2.5.9 4.7 2.7 6.6s3.9 2.8 6.4 2.8 4.8-.9 6.7-2.8 2.9-4.1 2.9-6.6v-15.1c0-.3.2-.5.5-.5h1.8c.3 0 .5.2.5.5v26c0 .3-.2.5-.5.5h-1.8c-.3 0-.5-.2-.5-.5v-3.5c-2.1 3.1-5.3 4.7-9.6 4.7zm-10.9-12c0 3.1 1.1 5.7 3.1 7.8 2.1 2.1 4.7 3.2 7.8 3.2 4.5 0 7.7-1.9 9.6-5.6.1-.2.2-.3.4-.3h.1c.2 0 .4.2.4.5v4.8h.9v-25.1h-.9v14.7c0 2.8-1.1 5.2-3.2 7.3-2.1 2-4.6 3.1-7.3 3.1s-5.2-1-7.1-3.1c-1.9-2-2.9-4.5-2.9-7.3v-14.7h-.9z"/><path d="m111.4 41c.1 0 .2.1.2.2v26c0 .1-.1.2-.2.2h-1.8c-.1 0-.2-.1-.2-.2v-4.3c-2 3.4-5.3 5.2-9.8 5.2-3.3 0-6.1-1.2-8.3-3.4-2.2-2.3-3.4-5.1-3.4-8.3v-15.2c0-.1.1-.2.2-.2h1.8c.1 0 .2.1.2.2v15.1c0 2.6.9 4.9 2.7 6.8s4 2.9 6.6 2.9 4.9-1 6.8-2.9c2-1.9 3-4.2 3-6.8v-15.1c0-.1.1-.2.2-.2zm-11.9 25.5c-2.7 0-5-1-6.9-3s-2.9-4.4-2.9-7.1v-14.9h-1.4v14.9c0 3.1 1.1 5.8 3.2 8s4.8 3.3 8 3.3c4.6 0 7.9-1.9 9.8-5.8 0-.1.1-.1.2-.1.1 0 .2.1.2.2v5h1.4v-25.5h-1.4v14.9c0 2.7-1 5.1-3.1 7.1-2 2-4.4 3-7.1 3zm11.9-26h-1.8c-.4 0-.7.3-.7.7v15.1c0 2.5-.9 4.6-2.8 6.4s-4.1 2.7-6.5 2.7-4.5-.9-6.3-2.7c-1.7-1.8-2.6-4-2.6-6.4v-15.1c0-.4-.3-.7-.7-.7h-1.8c-.4 0-.7.3-.7.7v15.1c0 3.4 1.2 6.3 3.5 8.7s5.2 3.6 8.6 3.6c4 0 7.2-1.4 9.3-4.1v2.8c0 .4.3.7.7.7h1.8c.4 0 .7-.3.7-.7v-26c0-.5-.3-.8-.7-.8zm-1.1 1.5h.4v24.6h-.4v-4.6c0-.3-.2-.6-.6-.7 0 0-.1 0-.2 0-.3 0-.5.2-.6.4-1.8 3.7-5 5.5-9.4 5.5-3 0-5.6-1.1-7.6-3.1-2-2.1-3.1-4.6-3.1-7.7v-14.4h.4v14.4c0 2.8 1 5.3 3 7.4s4.4 3.2 7.3 3.2c2.8 0 5.4-1.1 7.5-3.2 2.2-2.1 3.2-4.6 3.2-7.5zm-1.1 64c-3.6 0-6.7-2.8-8.4-4.3-2.7-2.4-4.7-5.5-6-9.2-.1-.3-.1-.6 0-.8.1-.3.4-.5.6-.6h.3c.5 0 .9.3 1 .7 1.1 3.3 2.9 6.1 5.4 8.3 1.6 1.4 4.2 3.7 6.9 3.7.4 0 .8 0 1.2-.2.2-.1 2.4-.7 3.1-2.6.6-1.7-.2-3.4-.3-3.4-.6-1.2-1.7-1.6-3.4-2.2-1.1-.4-2.5-1-4.1-1.9-1.8-1-3.4-2.3-4.9-3.7-.2-.2-.3-.5-.3-.8s.1-.6.3-.8.5-.3.8-.3.6.1.8.3c1.3 1.3 2.8 2.4 4.4 3.4 1.4.8 2.7 1.3 3.8 1.8 1.9.8 3.5 1.4 4.5 3.2 0 .1 1.4 2.6.4 5.2-1.1 2.8-3.9 3.8-4.5 3.9-.4.2-1 .3-1.6.3z"/><path d="m101.7 88.1c.2 0 .5.1.7.3 1.3 1.3 2.8 2.5 4.5 3.4 1.4.8 2.7 1.3 3.8 1.8 1.9.8 3.4 1.4 4.4 3.2 0 .1 1.4 2.5.4 5.1-1.1 2.8-3.9 3.7-4.4 3.8-.6.2-1.1.2-1.7.2-3.5 0-6.7-2.8-8.3-4.2-2.7-2.4-4.7-5.5-5.9-9.1-.2-.5.1-1.1.6-1.2h.3c.4 0 .8.3.9.7 1.1 3.3 2.9 6.1 5.4 8.3 1.5 1.4 4.2 3.8 7 3.8.4 0 .8 0 1.2-.2.2-.1 2.4-.7 3.1-2.7.7-1.8-.3-3.5-.3-3.5-.6-1.2-1.7-1.6-3.4-2.3-1.1-.4-2.5-1-4.1-1.9-1.8-1-3.4-2.3-4.9-3.7-.4-.4-.4-1 0-1.4.2-.3.4-.4.7-.4zm0-.3c-.3 0-.6.1-.9.4-.2.2-.3.5-.3.8s.1.6.4.8c1.5 1.4 3.1 2.7 4.9 3.7 1.6.9 3 1.5 4.1 1.9 1.7.7 2.7 1.1 3.3 2.2 0 0 .9 1.7.2 3.3-.7 1.9-2.8 2.5-3 2.5-.4.1-.8.1-1.2.1-2.7 0-5.3-2.3-6.9-3.7-2.4-2.1-4.2-4.9-5.3-8.2-.2-.5-.6-.8-1.1-.8-.1 0-.3 0-.4.1-.3.1-.6.3-.7.6s-.2.6-.1.9c1.2 3.7 3.3 6.8 6 9.2 1.7 1.5 4.9 4.3 8.5 4.3.6 0 1.2-.1 1.8-.2.6-.2 3.5-1.1 4.6-4 1-2.7-.3-5.2-.4-5.3-1-1.9-2.6-2.5-4.5-3.2-1.1-.4-2.3-.9-3.8-1.8-1.6-.9-3.1-2-4.4-3.3-.2-.2-.5-.3-.8-.3z"/></g><path d="m95.3 86.4c-.3 0-.6-.1-.8-.4-.3-.5-.8-1.2-.9-2.3-.1-.9 0-1.8.4-2.6.2-.4.5-.6.9-.6.1 0 .3 0 .4.1.5.2.7.8.5 1.3s-.3 1-.2 1.6c.1.5.2 1 .6 1.4.3.4.2 1.1-.2 1.4-.3 0-.6.1-.7.1z" fill="#a8ce38"/><path d="m94.8 80.6c.1 0 .2 0 .4.1.4.2.6.7.4 1.2s-.3 1.1-.3 1.6c.1.7.4 1.1.6 1.4.3.4.2.9-.2 1.2-.1.1-.3.2-.5.2-.3 0-.5-.1-.7-.4-.5-.7-.8-1.4-.9-2.2-.1-.9 0-1.8.4-2.6.2-.4.5-.5.8-.5zm0-.3c-.4 0-.8.3-1 .6-.3.6-.6 1.5-.4 2.7.1.9.4 1.7.9 2.4.2.3.6.5.9.5.2 0 .5-.1.6-.2.5-.4.6-1.1.2-1.6-.3-.4-.5-.8-.5-1.3-.1-.7.1-1.2.2-1.5.3-.6 0-1.2-.6-1.5.1-.1-.1-.1-.3-.1z" fill="#a8ce38"/><path d="m100.1 84.3c-1.7-.9-3.8-.8-5.4.4-2.4 1.9-1.9 5-1.8 5.1.4 1.9 1.7 3 2.3 3.4.2.1.4.2.6.2.3 0 .6-.1.8-.4.1-.2.2-.4.2-.6 0-.5.1-1.1.2-1.6v-.1c1.4 1.5 2.1 2.3 2.9 1.8.6-.4.7-.9 0-3.4.4.2.9.5 1.5.7.1.1.3.2.5.2.5 0 1-.3 1-.8 0-2.1-1.1-4-2.8-4.9zm-.5 2.8c-.3-.1-1.1-.6-1.7 0-.4.3-.5.8-.3 1.5.1.3.1.5.2.7-.5-.6-1-1.1-1.7-.9-.8.2-.9 1-1.1 2.1-.2-.3-.3-.6-.4-1 0-.1-.4-2 1.1-3.2.9-.7 2.3-.8 3.3-.2.6.3 1.1.9 1.4 1.6-.2-.3-.5-.5-.8-.6z" fill="#a8ce38"/><path d="m108.6 101.9c-2.8 0-5-2.2-5.6-2.9-.2-.2-.2-.6 0-.8s.6-.2.8 0c.6.7 2.7 2.8 5.3 2.5.4-.1.8-.2 1.2-.3.3-.1.6 0 .8.3s0 .7-.3.8c-.5.2-1 .4-1.5.4-.3 0-.5 0-.7 0zm-74.1-55.8c-.5 0-1-.4-1-.9 0-.7 0-2.7 1.3-4.4 1.8-2.3 4.4-2.4 5.2-2.4h.1c.5 0 1 .5 1 1 0 .5-.5 1-1 1h-.1c-.5 0-2.4.1-3.6 1.7-.9 1.2-.9 2.5-.9 3 0 .3-.1.5-.2.7-.2.2-.5.3-.8.3z" fill="#501b73"/><path d="m40 38.5h.1c.5 0 .9.4.8.9 0 .5-.4.8-.9.8-.5 0-2.5.1-3.7 1.7-.9 1.2-1 2.6-.9 3.1 0 .5-.3.9-.8.9h-.1c-.5 0-.8-.4-.9-.8 0-.7 0-2.6 1.3-4.3 1.8-2.2 4.3-2.3 5.1-2.3zm0-.3c-.8 0-3.5.2-5.3 2.5-1.4 1.7-1.4 3.7-1.3 4.5 0 .6.5 1 1.1 1h.1c.3 0 .6-.1.8-.4.2-.2.3-.5.3-.8 0-.5 0-1.8.9-2.9 1.2-1.5 3-1.6 3.5-1.6h.1c.6 0 1.1-.5 1.1-1.1s-.5-1.1-1.1-1.2c-.1 0-.1 0-.2 0z" fill="#501b73"/><path d="m34.5 42.2c-.4 0-.8-.1-1.3-.1-1.6-.2-2.8-.5-3.9-1.4-1.5-1.3-2.2-3.4-2.2-4.8 0-1 .5-1.5.8-1.7.2-.1.5-.2.7-.2.3 0 .6.1.9.2.2.1.6.3 1.2.4.5.1.8.2 1.2.3.8.2 1.4.3 2.3.9.2.1.4.3.7.6 1 .9 1.7 2.4 1.7 3.7 0 .9-.3 1.4-.6 1.7-.5.2-1 .4-1.5.4zm-5.2-5.8c.1.7.5 1.8 1.3 2.5.7.6 1.5.7 2.9.9.3 0 .6.1.8.1 0-.5-.3-1.4-1-2.1-.1-.1-.3-.2-.4-.3-.5-.3-.9-.4-1.6-.6-.4-.1-.8-.2-1.3-.3-.3 0-.5-.1-.7-.2z" fill="#a8ce38"/><path d="m28.6 34c.3 0 .6.1.8.2s.6.3 1.2.4c.5.1.8.2 1.2.3.7.2 1.4.3 2.2.9.2.1.4.3.7.6 1 .9 1.6 2.4 1.7 3.6 0 .8-.3 1.3-.6 1.6-.4.3-.8.4-1.3.4-.4 0-.8-.1-1.3-.1-1.5-.2-2.7-.4-3.8-1.3-1.5-1.2-2.2-3.3-2.1-4.7 0-.9.4-1.4.7-1.6.1-.2.4-.3.6-.3zm5.8 6.1c0-.4-.2-1.5-1.1-2.3-.2-.2-.3-.3-.5-.4-.5-.4-.9-.5-1.6-.6-.4-.1-.8-.2-1.3-.3-.4-.1-.7-.2-.9-.3.1.8.5 2.1 1.4 2.8.7.6 1.5.7 2.9.9.5.1.9.2 1.1.2zm-5.8-6.3c-.3 0-.6.1-.8.2-.4.2-.8.7-.9 1.8 0 1.5.7 3.7 2.2 4.9 1.2.9 2.4 1.2 4 1.4.5.1.9.1 1.3.1.6 0 1.1-.2 1.5-.5.3-.3.6-.8.6-1.8 0-1.3-.7-2.8-1.7-3.7-.3-.3-.6-.5-.7-.6-.9-.6-1.5-.7-2.3-.9-.4-.1-.7-.2-1.2-.3-.4-.1-.8-.3-1.1-.4-.2-.1-.5-.2-.9-.2zm5.6 6c-.2 0-.5-.1-.7-.1-1.3-.2-2.2-.4-2.8-.9-.7-.6-1.1-1.5-1.3-2.3.2.1.4.1.5.2.5.2 1 .3 1.3.3.6.1 1 .2 1.5.6.1.1.3.2.4.3.7.7 1 1.5 1.1 1.9zm-3.5 20.5c-2.3 0-4.6-3.2-5.5-5.3-1.5-3.4-1.9-8.2.9-10.9.5-.5 1.5-1.3 3.1-1.7.4-.1.8-.1 1.2-.1 1.7 0 3.1.7 4.1 1.4.9-.7 2.4-1.4 4.1-1.4.4 0 .8 0 1.2.1 1.2.2 2.2.8 3.1 1.7 1.3 1.3 2 3.2 2.1 5.4 0 1.8-.4 3.8-1.2 5.5-1 2.1-3.2 5.3-5.5 5.3-.2 0-.3 0-.5 0-.4-.1-.7-.3-1.1-.5-.5-.3-1.1-.6-2-.6h-.4c-.8 0-1.3.3-1.8.6-.3.2-.7.4-1.1.5-.3 0-.5 0-.7 0zm-.3-15.7c-.2 0-.5 0-.7.1-1 .2-1.7.8-2 1.1-1.2 1.2-2.3 4.4-.5 8.5.5 1.1 1.2 2.2 2 3 .9 1 1.4 1 1.5 1 .1 0 .3-.1.5-.2.6-.3 1.4-.8 2.8-.9h.6c1.4.1 2.3.5 2.9.9.2.1.5.2.6.3h.1c.7 0 2.5-1.7 3.6-4 1.2-2.7 1.5-6.6-.5-8.5-.6-.5-1.2-.9-2-1.1-.2 0-.5-.1-.7-.1-1.7 0-3.1 1.2-3.4 1.4h-.2s0 0-.1 0l-.7.1s0 0-.1 0l-.3-.2c-.3-.3-1.7-1.4-3.4-1.4z" fill="#a8ce38"/><path d="m38.6 42.5c.4 0 .7 0 1.1.1 1.5.3 2.5 1.2 3 1.6 1.3 1.3 2 3.1 2 5.3 0 1.9-.4 3.7-1.2 5.5-1 2.1-3.2 5.2-5.5 5.2-.2 0-.3 0-.5 0-.4-.1-.7-.3-1.1-.4-.5-.3-1.2-.6-2.1-.7h-.4c-.8 0-1.3.3-1.8.6-.3.2-.7.4-1.1.5-.2 0-.3 0-.5 0-2.1 0-4.3-2.9-5.4-5.2-1.5-3.3-1.8-8.1.9-10.8.5-.5 1.5-1.3 3-1.6.4-.1.8-.1 1.2-.1 1.8 0 3.2.8 4.1 1.4 1-.6 2.5-1.4 4.3-1.4zm-4.4 3.6-.4-.3c-.3-.3-1.7-1.4-3.4-1.4-.2 0-.5 0-.8.1-1 .2-1.7.8-2.1 1.1-1.2 1.2-2.3 4.5-.5 8.6.5 1.1 1.2 2.2 2 3s1.3 1 1.6 1h.1c.1 0 .3-.1.5-.3.6-.3 1.4-.8 2.7-.9h.6c1.3.1 2.2.5 2.9.9.2.1.5.2.6.3h.1c.8 0 2.6-1.8 3.7-4.1 1.2-2.7 1.5-6.7-.5-8.6-.7-.8-1.8-1.2-2.8-1.2-1.8 0-3.1 1.2-3.4 1.5l-.1.2s-.8.1-.8.1zm4.4-3.9c-1.7 0-3.2.7-4.1 1.4-.9-.6-2.3-1.3-4.1-1.3-1.6 0-3.2.7-4.3 1.8-2.8 2.7-2.5 7.7-.9 11.1.6 1.3 1.3 2.5 2.3 3.5.8.8 2 1.8 3.3 1.8.2 0 .4 0 .6-.1.4-.1.8-.3 1.1-.5.5-.3 1-.6 1.8-.6h.4c.9 0 1.4.3 2 .6.4.2.7.4 1.1.5h.5c2.4 0 4.7-3.2 5.7-5.4.8-1.7 1.2-3.7 1.2-5.6 0-2.3-.8-4.2-2.1-5.5-.9-.9-2-1.4-3.1-1.7-.6.1-1 0-1.4 0zm-4.4 4.2.8-.1c.1 0 .1 0 .1-.1l.2-.2c.3-.2 1.6-1.4 3.3-1.4.2 0 .5 0 .7.1 1 .2 1.6.7 1.9 1 1.4 1.4 2 4.8.4 8.3-.5 1-1.1 2-1.9 2.8-.7.9-1.3 1.2-1.5 1.2-.1 0-.3-.1-.5-.2-.7-.3-1.6-.8-3-.9h-.7c-1.3.1-2.2.6-2.8.9-.1.1-.3.2-.5.2 0 0-.5 0-1.4-1-.8-.8-1.5-1.9-2-3-1.8-4.1-.7-7.2.4-8.4.5-.5 1.2-.9 1.9-1 .2 0 .5-.1.7-.1 1.7 0 3 1.1 3.3 1.3l.4.3c.1.3.2.3.2.3z" fill="#a8ce38"/><path d="m28.6 50.4c-.3 0-.5-.2-.6-.5-.1-.7 0-1.4.2-2 .3-.7.8-1.3 1.5-1.7.3-.2.6-.1.8.2.2.3.1.6-.2.8-.5.3-.8.7-1 1.1s-.2.9-.2 1.3c.1.4-.1.7-.5.8.1 0 .1 0 0 0z" fill="#a8ce38"/><path d="m66.2 35.6c-1.1 0-2-.9-2-2s.9-2 2-2 2 .9 2 2-.9 2-2 2z" fill="#501b73"/><path d="m66.2 31.9c1 0 1.8.8 1.8 1.8s-.8 1.8-1.8 1.8-1.8-.8-1.8-1.8c0-1.1.8-1.8 1.8-1.8zm0-.5c-1.2 0-2.3 1-2.3 2.3 0 1.2 1 2.3 2.3 2.3 1.2 0 2.3-1 2.3-2.3-.1-1.3-1.1-2.3-2.3-2.3zm-24.3 44.3c-1.1 0-2-.9-2-2s.9-2 2-2 2 .9 2 2c.1 1.1-.8 2-2 2z" fill="#501b73"/><path d="m41.9 71.9c1 0 1.8.8 1.8 1.8s-.8 1.8-1.8 1.8-1.8-.8-1.8-1.8c.1-1 .9-1.8 1.8-1.8zm0-.5c-1.2 0-2.3 1-2.3 2.3 0 1.2 1 2.3 2.3 2.3s2.3-1 2.3-2.3-1-2.3-2.3-2.3z" fill="#501b73"/></svg>